<svg id="_x31__x2C_5" enable-background="new 0 0 36 36" height="512" viewBox="0 0 36 36" width="512" xmlns="http://www.w3.org/2000/svg"><path d="m8.377 31.833c6.917 0 11.667 3.583 15 3.583s10.333-1.916 10.333-17.249-9.417-17.584-13.083-17.584c-17.167 0-24.5 31.25-12.25 31.25z" fill="#efefef"/><g fill="#a4afc1"><path d="m6.033 3.467h2v1h-2z" transform="matrix(.707 -.707 .707 .707 -.745 6.135)"/><path d="m1.967 7.533h2v1h-2z" transform="matrix(.707 -.707 .707 .707 -4.811 4.451)"/><path d="m2.644 2.967h1v2h-1z" transform="matrix(.707 -.707 .707 .707 -1.884 3.384)"/></g><path d="m26.25 29.25c-1.66 0-3-1.34-3-3v-16.5-1c0-1.1-.9-2-2-2h-12.5c-1.1 0-2 .9-2 2v17.5c0 1.66 1.34 3 3 3h16.5.25z" fill="#f3f3f1"/><path d="m26.25 29.25c.83 0 1.58-.33 2.12-.88.55-.54.88-1.29.88-2.12v-14.5c0-1.1-.9-2-2-2h-4v16.5c0 1.66 1.34 3 3 3h.25z" fill="#2fdf84"/><path d="m15 19.25c-1.519 0-2.75-1.231-2.75-2.75v-3c0-1.519 1.231-2.75 2.75-2.75 1.519 0 2.75 1.231 2.75 2.75v3c0 1.519-1.231 2.75-2.75 2.75z" fill="#2fdf84"/><path d="m25.5 26.25v-16.5h-2.25v16.5c0 1.66 1.34 3 3 3 .4 0 .779-.08 1.127-.221-1.101-.444-1.877-1.517-1.877-2.779z" fill="#00b871"/><path d="m14.5 16.5v-3c0-1.117.669-2.074 1.625-2.504-.344-.155-.723-.246-1.125-.246-1.519 0-2.75 1.231-2.75 2.75v3c0 1.519 1.231 2.75 2.75 2.75.402 0 .781-.091 1.125-.246-.956-.43-1.625-1.387-1.625-2.504z" fill="#00b871"/><path d="m9 26.25v-17.5c0-1.1.9-2 2-2h-2.25c-1.1 0-2 .9-2 2v17.5c0 1.66 1.34 3 3 3h2.25c-1.66 0-3-1.34-3-3z" fill="#d5dbe1"/><path d="m14.25 22.75h1.5v2.25h-1.5z"/><path d="m12 24.75h6v1.5h-6z"/><path d="m26.5 30h-16.75c-2.067 0-3.75-1.683-3.75-3.75v-17.5c0-1.517 1.233-2.75 2.75-2.75h12.5c1.517 0 2.75 1.233 2.75 2.75v.25h3.25c1.517 0 2.75 1.233 2.75 2.75v14.5c0 1.983-1.549 3.612-3.5 3.742zm-2.5-19.5v15.75c0 1.24 1.01 2.25 2.25 2.25s2.25-1.01 2.25-2.25v-14.5c0-.689-.561-1.25-1.25-1.25zm-15.25-3c-.689 0-1.25.561-1.25 1.25v17.5c0 1.24 1.01 2.25 2.25 2.25h13.502c-.472-.627-.752-1.406-.752-2.25v-17.5c0-.689-.561-1.25-1.25-1.25z"/><path d="m15 20c-1.93 0-3.5-1.57-3.5-3.5v-3c0-1.93 1.57-3.5 3.5-3.5s3.5 1.57 3.5 3.5v3c0 1.93-1.57 3.5-3.5 3.5zm0-8.5c-1.103 0-2 .897-2 2v3c0 1.103.897 2 2 2s2-.897 2-2v-3c0-1.103-.897-2-2-2z"/><path d="m11.5 13.25h3.5v1.5h-3.5z"/><path d="m11.5 15.75h3.5v1.5h-3.5z"/><path d="m15 23c-3.309 0-6-2.579-6-5.75v-.75h1.5v.75c0 2.344 2.019 4.25 4.5 4.25s4.5-1.906 4.5-4.25v-.75h1.5v.75c0 3.171-2.691 5.75-6 5.75z"/></svg>