<svg id="_x31__x2C_5" enable-background="new 0 0 36 36" height="512" viewBox="0 0 36 36" width="512" xmlns="http://www.w3.org/2000/svg"><path d="m27.623 4.167c-6.917 0-11.667-3.583-15-3.583s-10.333 1.916-10.333 17.249 9.417 17.583 13.083 17.583c17.167.001 24.5-31.249 12.25-31.249z" fill="#efefef"/><path d="m30.5 5c-.827 0-1.5-.673-1.5-1.5s.673-1.5 1.5-1.5 1.5.673 1.5 1.5-.673 1.5-1.5 1.5zm0-2c-.276 0-.5.224-.5.5s.224.5.5.5.5-.224.5-.5-.224-.5-.5-.5z" fill="#a4afc1"/><path d="m27.25 27.25h-18.5c-1.105 0-2-.895-2-2v-15h22.5v15c0 1.105-.895 2-2 2z" fill="#f3f3f1"/><path d="m29.25 10.25h-22.5v-1.5c0-1.105.895-2 2-2h18.5c1.105 0 2 .895 2 2z" fill="#2fdf84"/><path d="m11 6.75h-2.25c-1.105 0-2 .895-2 2v1.5h2.25v-1.5c0-1.105.895-2 2-2z" fill="#00b871"/><path d="m9 25.25v-15h-2.25v15c0 1.105.895 2 2 2h2.25c-1.105 0-2-.895-2-2z" fill="#d5dbe1"/><path d="m17.63 19.509h-4.37c-.872 0-1.689-.34-2.302-.958-.611-.615-.944-1.431-.938-2.297-.012-.85.322-1.667.94-2.285.635-.621 1.45-.959 2.3-.959h1.2l.04 1.5h-1.24c-.457 0-.899.187-1.246.526-.323.324-.501.756-.495 1.213-.003.479.175.917.502 1.246.33.332.769.515 1.238.515h4.37c.641 0 1.212-.333 1.527-.89l.062-.12c.065-.14.108-.272.138-.416l.155-.734 1.468.31-.155.734c-.055.259-.134.5-.235.715-.041.096-.092.203-.154.296-.549.971-1.634 1.604-2.805 1.604z"/><path d="m22.74 19.489h-1.2v-1.5h1.2c.469 0 .908-.183 1.238-.515.327-.329.505-.766.502-1.229.003-.475-.175-.911-.501-1.24-.33-.333-.77-.515-1.238-.515h-4.37c-.463 0-.905.183-1.246.516-.064.064-.121.132-.164.197-.018.033-.038.065-.06.095-.065.087-.111.171-.144.262-.009.037-.021.073-.034.106-.035.083-.052.141-.06.199l-.106.743-1.485-.212.106-.742c.024-.166.065-.32.132-.494.002-.006.003-.011.005-.017.079-.25.195-.479.353-.699.001-.002.003-.005.005-.008.105-.17.239-.337.398-.497.627-.614 1.442-.95 2.3-.95h4.37c.872 0 1.689.34 2.303.958.611.615.943 1.431.937 2.297.006.855-.327 1.671-.937 2.286-.615.618-1.432.959-2.304.959z"/><path d="m23.213 30.31-4.012-4.298c-.269-.288-.269-.735 0-1.023l4.012-4.298 1.097 1.023-3.534 3.786 3.534 3.787z"/><path d="m19.75 24.75h10.25v1.5h-10.25z"/><path d="m17.32 28h-8.57c-1.517 0-2.75-1.233-2.75-2.75v-16.5c0-1.517 1.233-2.75 2.75-2.75h18.5c1.517 0 2.75 1.233 2.75 2.75v13.75h-1.5v-13.75c0-.689-.561-1.25-1.25-1.25h-18.5c-.689 0-1.25.561-1.25 1.25v16.5c0 .689.561 1.25 1.25 1.25h8.57z"/><path d="m6.75 9.5h22.5v1.5h-22.5z"/></svg>