<svg id="_x31__x2C_5" enable-background="new 0 0 36 36" height="512" viewBox="0 0 36 36" width="512" xmlns="http://www.w3.org/2000/svg"><path d="m27.623 4.167c-6.917 0-11.667-3.583-15-3.583s-10.333 1.916-10.333 17.249 9.417 17.583 13.083 17.583c17.167.001 24.5-31.249 12.25-31.249z" fill="#efefef"/><g fill="#a4afc1"><path d="m28.467 1.967h1v2h-1z" transform="matrix(.707 -.707 .707 .707 6.383 21.348)"/><path d="m32.533 6.033h1v2h-1z" transform="matrix(.707 -.707 .707 .707 4.699 25.413)"/><path d="m31.856 2.467h2v1h-2z" transform="matrix(.707 -.707 .707 .707 7.525 24.102)"/></g><path d="m7.75 8.75c0 .55.23 1.05.59 1.41s.86.59 1.41.59h15.5v-4h-15.5c-1.1 0-2 .9-2 2z" fill="#2fdf84"/><path d="m7.75 8.75v18.5c0 1.1.9 2 2 2h17.5v-18.5h-2-15.5c-.55 0-1.05-.23-1.41-.59s-.59-.86-.59-1.41z" fill="#f3f3f1"/><path d="m18.25 10.75v13.5l-3.25-2-3.25 2v-13.5z" fill="#2fdf84"/><path d="m10 8.75c0-1.1.9-2 2-2h-2.25c-1.1 0-2 .9-2 2 0 .55.23 1.05.59 1.41s.86.59 1.41.59h2.25c-.55 0-1.05-.23-1.41-.59s-.59-.86-.59-1.41z" fill="#00b871"/><path d="m14 10.75h-2.25v13.5l2.25-1.385z" fill="#00b871"/><path d="m10 27.25v-16.5h-.25c-.55 0-1.05-.23-1.41-.59s-.59-.86-.59-1.41v18.5c0 1.1.9 2 2 2h2.25c-1.1 0-2-.9-2-2z" fill="#d5dbe1"/><path d="m27.25 30h-17.5c-1.517 0-2.75-1.233-2.75-2.75v-18.5c0-1.517 1.233-2.75 2.75-2.75h15.5c.414 0 .75.336.75.75v3.25h1.25c.414 0 .75.336.75.75v18.5c0 .414-.336.75-.75.75zm-18.75-18.801v16.051c0 .689.561 1.25 1.25 1.25h16.75v-17h-16.75c-.45 0-.875-.108-1.25-.301zm1.25-3.699c-.689 0-1.25.561-1.25 1.25s.561 1.25 1.25 1.25h14.75v-2.5z"/><path d="m18.25 25c-.137 0-.272-.037-.394-.111l-2.856-1.758-2.856 1.758c-.231.144-.521.149-.76.016-.238-.133-.384-.384-.384-.655v-13.5h1.5v12.158l2.106-1.296c.242-.148.545-.148.787 0l2.106 1.296v-12.158h1.501v13.5c0 .271-.146.522-.384.655-.114.063-.24.095-.366.095z"/></svg>