<svg id="_x31__x2C_5" enable-background="new 0 0 36 36" height="512" viewBox="0 0 36 36" width="512" xmlns="http://www.w3.org/2000/svg"><path d="m31.833 27.623c0-6.917 3.583-11.667 3.583-15s-1.916-10.333-17.249-10.333-17.584 9.417-17.584 13.083c0 17.167 31.25 24.5 31.25 12.25z" fill="#efefef"/><g fill="#a4afc1"><path d="m6.033 2.467h2v1h-2z" transform="matrix(.707 -.707 .707 .707 -.038 5.842)"/><path d="m1.967 6.533h2v1h-2z" transform="matrix(.707 -.707 .707 .707 -4.104 4.158)"/><path d="m2.644 1.967h1v2h-1z" transform="matrix(.707 -.707 .707 .707 -1.177 3.091)"/></g><path d="m27.25 29.25h-18.5c-1.105 0-2-.895-2-2v-12.5h22.5v12.5c0 1.105-.895 2-2 2z" fill="#f3f3f1"/><path d="m29.25 14.75h-22.5v-4c0-1.105.895-2 2-2h18.5c1.105 0 2 .895 2 2z" fill="#2fdf84"/><path d="m18 26.25c-1.519 0-2.75-1.231-2.75-2.75v-3c0-1.519 1.231-2.75 2.75-2.75 1.519 0 2.75 1.231 2.75 2.75v3c0 1.519-1.231 2.75-2.75 2.75z" fill="#2fdf84"/><path d="m11 8.75h-2.25c-1.105 0-2 .895-2 2v4h2.25v-4c0-1.105.895-2 2-2z" fill="#00b871"/><path d="m17.5 23.5v-3c0-1.117.669-2.074 1.625-2.504-.344-.155-.723-.246-1.125-.246-1.519 0-2.75 1.231-2.75 2.75v3c0 1.519 1.231 2.75 2.75 2.75.402 0 .781-.091 1.125-.246-.956-.43-1.625-1.387-1.625-2.504z" fill="#00b871"/><path d="m9 27.25v-12.5h-2.25v12.5c0 1.105.895 2 2 2h2.25c-1.105 0-2-.895-2-2z" fill="#d5dbe1"/><path d="m18 27c-1.93 0-3.5-1.57-3.5-3.5v-3c0-1.93 1.57-3.5 3.5-3.5s3.5 1.57 3.5 3.5v3c0 1.93-1.57 3.5-3.5 3.5zm0-8.5c-1.103 0-2 .897-2 2v3c0 1.103.897 2 2 2s2-.897 2-2v-3c0-1.103-.897-2-2-2z"/><path d="m14.5 20.25h3.5v1.5h-3.5z"/><path d="m14.5 22.75h3.5v1.5h-3.5z"/><path d="m18 30c-3.309 0-6-2.579-6-5.75v-.75h1.5v.75c0 2.344 2.019 4.25 4.5 4.25s4.5-1.906 4.5-4.25v-.75h1.5v.75c0 3.171-2.691 5.75-6 5.75z"/><path d="m27.25 30h-18.5c-1.517 0-2.75-1.233-2.75-2.75v-16.5c0-1.517 1.233-2.75 2.75-2.75h18.5c1.517 0 2.75 1.233 2.75 2.75v16.5c0 1.517-1.233 2.75-2.75 2.75zm-18.5-20.5c-.689 0-1.25.561-1.25 1.25v16.5c0 .689.561 1.25 1.25 1.25h18.5c.689 0 1.25-.561 1.25-1.25v-16.5c0-.689-.561-1.25-1.25-1.25z"/><path d="m6.75 14h22.5v1.5h-22.5z"/><path d="m11 6h1.5v6h-1.5z"/><path d="m23.5 6h1.5v6h-1.5z"/></svg>